<svg class="main-svg" xmlns="http://www.w3.org/2000/svg" xmlns:xlink="http://www.w3.org/1999/xlink" width="400" height="350" style="" viewBox="0 0 400 350"><rect x="0" y="0" width="400" height="350" style="fill: rgb(255, 255, 255); fill-opacity: 1;"/><defs id="defs-822ecd"><g class="clips"/><g class="gradients"/><g class="patterns"/></defs><g class="bglayer"/><g class="layer-below"><g class="imagelayer"/><g class="shapelayer"/></g><g class="cartesianlayer"/><g class="polarlayer"/><g class="smithlayer"/><g class="ternarylayer"/><g class="geolayer"/><g class="funnelarealayer"/><g class="pielayer"/><g class="iciclelayer"/><g class="treemaplayer"/><g class="sunburstlayer"/><g class="glimages"/><defs id="topdefs-822ecd"><g class="clips"/></defs><g class="indicatorlayer"><g class="trace"><g class="numbers" transform="translate(200,255.791015625)"><text text-anchor="middle" class="number" x="0" y="0" style="font-family: Arial, sans-serif; font-size: 20px; fill: rgb(42, 63, 95); fill-opacity: 1; white-space: pre;">5 (Execute)</text></g><g class="angular" transform="translate(200,260)"><g class="bg-arc"><path d="M-170,-2.0818995585505004e-14A170,170 0 0,1 170,0L127.5,0A127.5,127.5 0 0,0 -127.5,-1.5614246689128753e-14Z" style="stroke: rgb(221, 221, 221); stroke-opacity: 1; fill: rgb(255, 255, 255); fill-opacity: 1; stroke-width: 0;"/></g><g class="bg-arc"><path d="M-170,-2.0818995585505004e-14A170,170 0 0,1 -137.53288904374105,-99.92349288972045L-103.14966678280578,-74.94261966729034A127.5,127.5 0 0,0 -127.5,-1.5614246689128753e-14Z" style="stroke: rgb(68, 68, 68); stroke-opacity: 1; fill: rgb(244, 67, 54); fill-opacity: 1; stroke-width: 0;"/></g><g class="bg-arc"><path d="M-137.53288904374105,-99.92349288972045A170,170 0 0,1 -52.53288904374105,-161.67960777017612L-39.39966678280579,-121.25970582763209A127.5,127.5 0 0,0 -103.14966678280578,-74.94261966729034Z" style="stroke: rgb(68, 68, 68); stroke-opacity: 1; fill: rgb(255, 87, 34); fill-opacity: 1; stroke-width: 0;"/></g><g class="bg-arc"><path d="M-52.53288904374105,-161.67960777017612A170,170 0 0,1 52.532889043741065,-161.6796077701761L39.3996667828058,-121.25970582763208A127.5,127.5 0 0,0 -39.39966678280579,-121.25970582763209Z" style="stroke: rgb(68, 68, 68); stroke-opacity: 1; fill: rgb(255, 152, 0); fill-opacity: 1; stroke-width: 0;"/></g><g class="bg-arc"><path d="M52.532889043741065,-161.6796077701761A170,170 0 0,1 137.53288904374108,-99.92349288972044L103.1496667828058,-74.94261966729033A127.5,127.5 0 0,0 39.3996667828058,-121.25970582763208Z" style="stroke: rgb(68, 68, 68); stroke-opacity: 1; fill: rgb(255, 193, 7); fill-opacity: 1; stroke-width: 0;"/></g><g class="bg-arc"><path d="M137.53288904374108,-99.92349288972044A170,170 0 0,1 170,0L127.5,0A127.5,127.5 0 0,0 103.1496667828058,-74.94261966729033Z" style="stroke: rgb(68, 68, 68); stroke-opacity: 1; fill: rgb(139, 195, 74); fill-opacity: 1; stroke-width: 0;"/></g><g class="value-arc"><path d="M-153,-1.8737096026954503e-14A153,153 0 0,1 153,0L144.5,0A144.5,144.5 0 0,0 -144.5,-1.7696146247679254e-14Z" style="stroke: rgb(68, 68, 68); stroke-opacity: 1; fill: rgb(51, 51, 51); fill-opacity: 1; stroke-width: 0;"/></g><g class="threshold-arc"><path d="M164.6875,0A164.6875,164.6875 0 0,1 164.6875,0L132.8125,0A132.8125,132.8125 0 0,0 132.8125,0Z" style="stroke: rgb(76, 175, 80); stroke-opacity: 1; fill: rgb(0, 0, 0); fill-opacity: 1; stroke-width: 4;"/></g><g class="gauge-outline"><path d="M-170,-2.0818995585505004e-14A170,170 0 0,1 170,0L127.5,0A127.5,127.5 0 0,0 -127.5,-1.5614246689128753e-14Z" style="stroke: rgb(221, 221, 221); stroke-opacity: 1; fill: rgb(0, 0, 0); fill-opacity: 0; stroke-width: 2;"/></g></g><g class="angularaxis crisp"><path class="xangularaxistick ticks crisp" d="M0.5,0h5" transform="translate(30,260)rotate(-180)" style="stroke: rgb(68, 68, 68); stroke-opacity: 1; stroke-width: 1px;"/><path class="xangularaxistick ticks crisp" d="M0.5,0h5" transform="translate(62.46711095625895,160.07650711027955)rotate(-144)" style="stroke: rgb(68, 68, 68); stroke-opacity: 1; stroke-width: 1px;"/><path class="xangularaxistick ticks crisp" d="M0.5,0h5" transform="translate(147.46711095625895,98.32039222982388)rotate(-108)" style="stroke: rgb(68, 68, 68); stroke-opacity: 1; stroke-width: 1px;"/><path class="xangularaxistick ticks crisp" d="M0.5,0h5" transform="translate(252.53288904374108,98.32039222982391)rotate(-72)" style="stroke: rgb(68, 68, 68); stroke-opacity: 1; stroke-width: 1px;"/><path class="xangularaxistick ticks crisp" d="M0.5,0h5" transform="translate(337.5328890437411,160.07650711027958)rotate(-36)" style="stroke: rgb(68, 68, 68); stroke-opacity: 1; stroke-width: 1px;"/><path class="xangularaxistick ticks crisp" d="M0.5,0h5" transform="translate(370,260)rotate(0)" style="stroke: rgb(68, 68, 68); stroke-opacity: 1; stroke-width: 1px;"/><g class="xangularaxistick"><text text-anchor="end" x="-7.5" y="3.4999999999999987" transform="translate(30,260)" style="font-family: Arial, sans-serif; font-size: 10px; fill: rgb(42, 63, 95); fill-opacity: 1; white-space: pre;">Pre</text></g><g class="xangularaxistick"><text text-anchor="end" x="-6.067627457812105" y="-2.7524004164661804" transform="translate(62.46711095625895,160.07650711027955)" style="font-family: Arial, sans-serif; font-size: 10px; fill: rgb(42, 63, 95); fill-opacity: 1; white-space: pre;">G1</text></g><g class="xangularaxistick"><text text-anchor="end" x="-2.317627457812105" y="-7.953477424491644" transform="translate(147.46711095625895,98.32039222982388)" style="font-family: Arial, sans-serif; font-size: 10px; fill: rgb(42, 63, 95); fill-opacity: 1; white-space: pre;">G2</text></g><g class="xangularaxistick"><text text-anchor="start" x="2.317627457812106" y="-7.953477424491641" transform="translate(252.53288904374108,98.32039222982391)" style="font-family: Arial, sans-serif; font-size: 10px; fill: rgb(42, 63, 95); fill-opacity: 1; white-space: pre;">G3</text></g><g class="xangularaxistick"><text text-anchor="start" x="6.067627457812106" y="-2.752400416466179" transform="translate(337.5328890437411,160.07650711027958)" style="font-family: Arial, sans-serif; font-size: 10px; fill: rgb(42, 63, 95); fill-opacity: 1; white-space: pre;">G4</text></g><g class="xangularaxistick"><text text-anchor="start" x="7.5" y="3.5" transform="translate(370,260)" style="font-family: Arial, sans-serif; font-size: 10px; fill: rgb(42, 63, 95); fill-opacity: 1; white-space: pre;">G5</text></g></g><text class="title" text-anchor="middle" x="0" y="0" style="font-family: Arial, sans-serif; font-size: 14px; fill: rgb(42, 63, 95); fill-opacity: 1; white-space: pre;" transform="translate(200,73.3671875)">Gate Depth Reached</text></g></g><g class="layer-above"><g class="imagelayer"/><g class="shapelayer"/></g><g class="infolayer"><g class="g-gtitle"/><g class="annotation" data-index="0" style="opacity: 1;"><g class="annotation-text-g" transform="rotate(0,200,317.5)"><g class="cursor-pointer" transform="translate(50,311)"><rect class="bg" x="0.5" y="0.5" width="299" height="13" style="stroke-width: 1px; stroke: rgb(0, 0, 0); stroke-opacity: 0; fill: rgb(0, 0, 0); fill-opacity: 0;"/><text class="annotation-text" text-anchor="middle" x="150.171875" y="10" style="font-family: Arial, sans-serif; font-size: 9px; fill: rgb(102, 102, 102); fill-opacity: 1; white-space: pre;">0: Pre-screen | 1: Noise | 2: Relevance | 3: Stability | 4: Kappa | 5: Execute</text></g></g></g></g></svg>