<?xml version="1.0" encoding="iso-8859-1"?>
<!-- Generator: Adobe Illustrator 29.6.1, SVG Export Plug-In . SVG Version: 9.03 Build 0)  -->
<svg version="1.1" id="Layer_1" xmlns="http://www.w3.org/2000/svg" xmlns:xlink="http://www.w3.org/1999/xlink" x="0px" y="0px"
	 viewBox="0 0 1024 1024" style="enable-background:new 0 0 1024 1024;" xml:space="preserve">
<g>
	<g>
		
			<polygon style="fill:#C1C7D3;stroke:#00172D;stroke-width:10;stroke-linecap:round;stroke-linejoin:round;stroke-miterlimit:10;" points="
			565.37,244.285 169.975,244.285 169.975,887 644.377,887 644.377,323.292 		"/>
		
			<polygon style="fill:#FFFFFF;stroke:#00172D;stroke-width:10;stroke-linecap:round;stroke-linejoin:round;stroke-miterlimit:10;" points="
			565.37,323.292 644.377,323.292 565.37,244.285 		"/>
	</g>
	<g>
		
			<polygon style="fill:#FFFFFF;stroke:#00172D;stroke-width:10;stroke-linecap:round;stroke-linejoin:round;stroke-miterlimit:10;" points="
			619.013,190.643 223.617,190.643 223.617,833.357 698.019,833.357 698.019,269.649 		"/>
		
			<polygon style="fill:#FFFFFF;stroke:#00172D;stroke-width:10;stroke-linecap:round;stroke-linejoin:round;stroke-miterlimit:10;" points="
			619.013,269.649 698.019,269.649 619.013,190.643 		"/>
	</g>
	<g>
		
			<polygon style="fill:#FFFFFF;stroke:#00172D;stroke-width:10;stroke-linecap:round;stroke-linejoin:round;stroke-miterlimit:10;" points="
			672.656,137 277.26,137 277.26,779.715 751.662,779.715 751.662,216.006 		"/>
		
			<polygon style="fill:#C1C7D3;stroke:#00172D;stroke-width:10;stroke-linecap:round;stroke-linejoin:round;stroke-miterlimit:10;" points="
			672.656,216.006 751.662,216.006 672.656,137 		"/>
	</g>
	<g>
		
			<rect x="765.519" y="625.901" transform="matrix(0.7071 -0.7071 0.7071 0.7071 -246.8188 752.3958)" style="fill:#C1C7D3;stroke:#00172D;stroke-width:10;stroke-linecap:round;stroke-linejoin:round;stroke-miterlimit:10;" width="38.587" height="96.467"/>
		<linearGradient id="SVGID_1_" gradientUnits="userSpaceOnUse" x1="925.1415" y1="721.3234" x2="832.22" y2="814.2449">
			<stop  offset="0.0106" style="stop-color:#3B82F6"/>
			<stop  offset="1" style="stop-color:#8B5CF6"/>
		</linearGradient>
		
			<path style="fill:url(#SVGID_1_);stroke:#00172D;stroke-width:10;stroke-linecap:round;stroke-linejoin:round;stroke-miterlimit:10;" d="
			M925.623,814.945L925.623,814.945c-11.203,11.203-29.365,11.203-40.568,0l-73.82-73.82l40.568-40.568l73.82,73.82
			C936.826,785.58,936.826,803.743,925.623,814.945z"/>
		<path style="fill:#FFFFFF;stroke:#00172D;stroke-width:10;stroke-linecap:round;stroke-linejoin:round;stroke-miterlimit:10;" d="
			M857.789,707.208l-39.903,39.903c-3.489,3.489-9.146,3.489-12.636,0l-9.643-9.643c-3.489-3.489-3.489-9.146,0-12.636
			l39.903-39.903c3.489-3.489,9.146-3.489,12.636,0l9.643,9.643C861.278,698.062,861.278,703.719,857.789,707.208z"/>
		
			<circle style="fill:#FFFFFF;stroke:#00172D;stroke-width:10;stroke-linecap:round;stroke-linejoin:round;stroke-miterlimit:10;" cx="702.467" cy="591.788" r="123.422"/>
		
			<circle style="fill:#FFFFFF;stroke:#00172D;stroke-width:10;stroke-linecap:round;stroke-linejoin:round;stroke-miterlimit:10;" cx="702.467" cy="591.788" r="90.523"/>
	</g>
	
		<line style="fill:none;stroke:#00172D;stroke-width:10;stroke-linecap:round;stroke-linejoin:round;stroke-miterlimit:10;" x1="345.177" y1="204.699" x2="476.295" y2="204.699"/>
	<g>
		
			<linearGradient id="SVGID_00000098215750713361141250000002386990740328175509_" gradientUnits="userSpaceOnUse" x1="483.5327" y1="301.4274" x2="379.3286" y2="405.6315">
			<stop  offset="0.0106" style="stop-color:#3B82F6"/>
			<stop  offset="1" style="stop-color:#8B5CF6"/>
		</linearGradient>
		
			<path style="fill:url(#SVGID_00000098215750713361141250000002386990740328175509_);stroke:#00172D;stroke-width:10;stroke-linecap:round;stroke-linejoin:round;stroke-miterlimit:10;" d="
			M500.608,422.953c-0.372,0.372-0.752,0.745-1.133,1.101c-38.351,37.171-99.569,36.799-137.469-1.101
			c-38.28-38.272-38.28-100.329,0-138.601c18.566-18.574,42.739-28.134,67.063-28.68c25.829-0.586,51.832,8.974,71.538,28.68
			C538.88,322.624,538.88,384.681,500.608,422.953z"/>
		<g>
			
				<path style="fill:#FFFFFF;stroke:#00172D;stroke-width:10;stroke-linecap:round;stroke-linejoin:round;stroke-miterlimit:10;" d="
				M500.608,284.352c-19.706-19.706-45.709-29.266-71.538-28.68v97.977h100.242C529.311,328.568,519.743,303.487,500.608,284.352z"
				/>
			
				<path style="fill:#C1C7D3;stroke:#00172D;stroke-width:10;stroke-linecap:round;stroke-linejoin:round;stroke-miterlimit:10;" d="
				M429.07,353.649l70.406,70.406c0.38-0.356,0.76-0.729,1.133-1.101c19.137-19.137,28.705-44.221,28.704-69.305H429.07z"/>
		</g>
	</g>
	
		<linearGradient id="SVGID_00000009558649629360744240000010591115151241108132_" gradientUnits="userSpaceOnUse" x1="635.2371" y1="567.4983" x2="838.8906" y2="567.4983">
		<stop  offset="0.0106" style="stop-color:#3B82F6"/>
		<stop  offset="1" style="stop-color:#8B5CF6"/>
	</linearGradient>
	
		<polygon style="fill:url(#SVGID_00000009558649629360744240000010591115151241108132_);stroke:#00172D;stroke-width:10;stroke-linecap:round;stroke-linejoin:round;stroke-miterlimit:10;" points="
		812.887,484.674 699.247,598.314 661.241,560.309 635.237,586.312 699.247,650.322 838.891,510.678 	"/>
	<g>
		
			<line style="fill:none;stroke:#00172D;stroke-width:10;stroke-linecap:round;stroke-linejoin:round;stroke-miterlimit:10;" x1="579.044" y1="290.295" x2="702.467" y2="290.295"/>
		
			<line style="fill:none;stroke:#00172D;stroke-width:10;stroke-linecap:round;stroke-linejoin:round;stroke-miterlimit:10;" x1="579.044" y1="353.225" x2="702.467" y2="353.225"/>
		
			<line style="fill:none;stroke:#00172D;stroke-width:10;stroke-linecap:round;stroke-linejoin:round;stroke-miterlimit:10;" x1="579.044" y1="416.156" x2="702.467" y2="416.156"/>
	</g>
	<g>
		
			<polyline style="fill:none;stroke:#00172D;stroke-width:10;stroke-linecap:round;stroke-linejoin:round;stroke-miterlimit:10;" points="
			324.809,540.248 346.449,561.888 396.544,511.794 		"/>
		
			<line style="fill:none;stroke:#00172D;stroke-width:10;stroke-linecap:round;stroke-linejoin:round;stroke-miterlimit:10;" x1="429.481" y1="546.613" x2="535.263" y2="546.613"/>
	</g>
	<g>
		
			<polyline style="fill:none;stroke:#00172D;stroke-width:10;stroke-linecap:round;stroke-linejoin:round;stroke-miterlimit:10;" points="
			324.809,615.905 346.449,637.545 396.544,587.451 		"/>
		
			<line style="fill:none;stroke:#00172D;stroke-width:10;stroke-linecap:round;stroke-linejoin:round;stroke-miterlimit:10;" x1="429.481" y1="622.27" x2="535.263" y2="622.27"/>
	</g>
	<g>
		
			<polyline style="fill:none;stroke:#00172D;stroke-width:10;stroke-linecap:round;stroke-linejoin:round;stroke-miterlimit:10;" points="
			324.809,691.561 346.449,713.202 396.544,663.107 		"/>
		
			<line style="fill:none;stroke:#00172D;stroke-width:10;stroke-linecap:round;stroke-linejoin:round;stroke-miterlimit:10;" x1="429.481" y1="697.926" x2="535.263" y2="697.926"/>
	</g>
</g>
</svg>
