<?xml version="1.0" encoding="iso-8859-1"?>
<!-- Generator: Adobe Illustrator 29.6.1, SVG Export Plug-In . SVG Version: 9.03 Build 0)  -->
<svg version="1.1" id="Layer_1" xmlns="http://www.w3.org/2000/svg" xmlns:xlink="http://www.w3.org/1999/xlink" x="0px" y="0px"
	 viewBox="0 0 1024 1024" style="enable-background:new 0 0 1024 1024;" xml:space="preserve">
<g>
	<g>
		<linearGradient id="SVGID_1_" gradientUnits="userSpaceOnUse" x1="202.3009" y1="242.5197" x2="827.0245" y2="242.5197">
			<stop  offset="0.0106" style="stop-color:#3B82F6"/>
			<stop  offset="1" style="stop-color:#8B5CF6"/>
		</linearGradient>
		
			<path style="fill:url(#SVGID_1_);stroke:#00172D;stroke-width:10;stroke-linecap:round;stroke-linejoin:round;stroke-miterlimit:10;" d="
			M827.025,224.288c0-24.203-19.62-43.823-43.823-43.823H246.124c-24.203,0-43.823,19.62-43.823,43.823v80.285h624.724V224.288z"/>
		<path style="fill:#FFFFFF;stroke:#00172D;stroke-width:10;stroke-linecap:round;stroke-linejoin:round;stroke-miterlimit:10;" d="
			M827.022,304.574v494.448c0,24.197-19.618,43.815-43.824,43.815H246.12c-24.197,0-43.815-19.618-43.815-43.815V304.574H827.022z"
			/>
	</g>
	
		<circle style="fill:#FFFFFF;stroke:#00172D;stroke-width:10;stroke-linecap:round;stroke-linejoin:round;stroke-miterlimit:10;" cx="266.447" cy="242.52" r="22.312"/>
	
		<circle style="fill:#FFFFFF;stroke:#00172D;stroke-width:10;stroke-linecap:round;stroke-linejoin:round;stroke-miterlimit:10;" cx="344.569" cy="242.52" r="22.312"/>
	
		<circle style="fill:#FFFFFF;stroke:#00172D;stroke-width:10;stroke-linecap:round;stroke-linejoin:round;stroke-miterlimit:10;" cx="422.692" cy="242.52" r="22.312"/>
	<path style="fill:#C1C7D3;stroke:#00172D;stroke-width:10;stroke-linecap:round;stroke-linejoin:round;stroke-miterlimit:10;" d="
		M322.258,304.574v538.263H246.12c-24.197,0-43.815-19.618-43.815-43.815V304.574H322.258z"/>
	<g>
		<g>
			
				<line style="fill:none;stroke:#00172D;stroke-width:10;stroke-linecap:round;stroke-linejoin:round;stroke-miterlimit:10;" x1="254.361" y1="378.248" x2="268.964" y2="378.248"/>
		</g>
		<g>
			
				<line style="fill:none;stroke:#00172D;stroke-width:10;stroke-linecap:round;stroke-linejoin:round;stroke-miterlimit:10;" x1="254.361" y1="442.394" x2="268.964" y2="442.394"/>
		</g>
		<g>
			
				<line style="fill:none;stroke:#00172D;stroke-width:10;stroke-linecap:round;stroke-linejoin:round;stroke-miterlimit:10;" x1="254.361" y1="506.54" x2="268.964" y2="506.54"/>
		</g>
		<g>
			
				<line style="fill:none;stroke:#00172D;stroke-width:10;stroke-linecap:round;stroke-linejoin:round;stroke-miterlimit:10;" x1="254.361" y1="570.686" x2="268.964" y2="570.686"/>
		</g>
		<g>
			
				<line style="fill:none;stroke:#00172D;stroke-width:10;stroke-linecap:round;stroke-linejoin:round;stroke-miterlimit:10;" x1="254.361" y1="634.831" x2="268.964" y2="634.831"/>
		</g>
		<g>
			
				<line style="fill:none;stroke:#00172D;stroke-width:10;stroke-linecap:round;stroke-linejoin:round;stroke-miterlimit:10;" x1="254.361" y1="698.977" x2="268.964" y2="698.977"/>
		</g>
		<g>
			
				<line style="fill:none;stroke:#00172D;stroke-width:10;stroke-linecap:round;stroke-linejoin:round;stroke-miterlimit:10;" x1="254.361" y1="763.123" x2="268.964" y2="763.123"/>
		</g>
	</g>
	<g>
		<g>
			
				<line style="fill:none;stroke:#00172D;stroke-width:10;stroke-linecap:round;stroke-linejoin:round;stroke-miterlimit:10;" x1="377.772" y1="378.248" x2="497.271" y2="378.248"/>
		</g>
		<g>
			
				<line style="fill:none;stroke:#00172D;stroke-width:10;stroke-linecap:round;stroke-linejoin:round;stroke-miterlimit:10;" x1="609.526" y1="442.394" x2="718.294" y2="442.394"/>
			
				<line style="fill:none;stroke:#00172D;stroke-width:10;stroke-linecap:round;stroke-linejoin:round;stroke-miterlimit:10;" x1="457.528" y1="442.394" x2="566.994" y2="442.394"/>
		</g>
		<g>
			
				<line style="fill:none;stroke:#00172D;stroke-width:10;stroke-linecap:round;stroke-linejoin:round;stroke-miterlimit:10;" x1="457.528" y1="506.54" x2="645.782" y2="506.54"/>
		</g>
		<g>
			
				<line style="fill:none;stroke:#00172D;stroke-width:10;stroke-linecap:round;stroke-linejoin:round;stroke-miterlimit:10;" x1="377.772" y1="570.686" x2="517.49" y2="570.686"/>
		</g>
		<g>
			
				<line style="fill:none;stroke:#00172D;stroke-width:10;stroke-linecap:round;stroke-linejoin:round;stroke-miterlimit:10;" x1="377.772" y1="634.831" x2="486.115" y2="634.831"/>
		</g>
		<g>
			
				<line style="fill:none;stroke:#00172D;stroke-width:10;stroke-linecap:round;stroke-linejoin:round;stroke-miterlimit:10;" x1="457.528" y1="698.977" x2="583.031" y2="698.977"/>
		</g>
		<g>
			
				<line style="fill:none;stroke:#00172D;stroke-width:10;stroke-linecap:round;stroke-linejoin:round;stroke-miterlimit:10;" x1="377.772" y1="763.123" x2="530.041" y2="763.123"/>
		</g>
	</g>
	<g>
		<path style="fill:#C1C7D3;stroke:#00172D;stroke-width:10;stroke-linecap:round;stroke-linejoin:round;stroke-miterlimit:10;" d="
			M895.368,763.123H650.047c-10.842,0-19.632-8.789-19.632-19.632V567.334c0-10.842,8.789-19.632,19.632-19.632h245.321
			c10.842,0,19.632,8.789,19.632,19.632v176.157C915,754.333,906.211,763.123,895.368,763.123z"/>
		<g>
			<g>
				
					<polyline style="fill:none;stroke:#00172D;stroke-width:10;stroke-linecap:round;stroke-linejoin:round;stroke-miterlimit:10;" points="
					725.908,604.628 675.123,655.413 725.908,706.198 				"/>
				
					<polyline style="fill:none;stroke:#00172D;stroke-width:10;stroke-linecap:round;stroke-linejoin:round;stroke-miterlimit:10;" points="
					819.508,706.198 870.292,655.413 819.508,604.628 				"/>
			</g>
			
				<line style="fill:none;stroke:#00172D;stroke-width:10;stroke-linecap:round;stroke-linejoin:round;stroke-miterlimit:10;" x1="800.206" y1="579.138" x2="745.209" y2="731.688"/>
		</g>
	</g>
	<g>
		
			<linearGradient id="SVGID_00000111902484399820796120000007269530892710146989_" gradientUnits="userSpaceOnUse" x1="472.9381" y1="-177.6276" x2="580.5815" y2="-177.6276" gradientTransform="matrix(0.7071 -0.7071 0.7071 0.7071 -98.7848 1083.0793)">
			<stop  offset="0.0106" style="stop-color:#3B82F6"/>
			<stop  offset="1" style="stop-color:#8B5CF6"/>
		</linearGradient>
		
			<path style="fill:url(#SVGID_00000111902484399820796120000007269530892710146989_);stroke:#00172D;stroke-width:10;stroke-linecap:round;stroke-linejoin:round;stroke-miterlimit:10;" d="
			M243.976,604.774l-76.115,76.115L74.05,587.078c-12.066-12.066-12.066-31.629,0-43.695l32.42-32.42
			c12.066-12.066,31.629-12.066,43.695,0L243.976,604.774z"/>
		
			<polygon style="fill:#FFFFFF;stroke:#00172D;stroke-width:10;stroke-linecap:round;stroke-linejoin:round;stroke-miterlimit:10;" points="
			243.977,604.769 454.333,815.125 476.643,863.913 518.452,955.366 427,913.556 378.212,891.246 167.856,680.89 		"/>
		
			<polygon style="fill:#C1C7D3;stroke:#00172D;stroke-width:10;stroke-linecap:round;stroke-linejoin:round;stroke-miterlimit:10;" points="
			476.643,863.913 518.452,955.366 427,913.556 		"/>
		
			<line style="fill:none;stroke:#00172D;stroke-width:10;stroke-linecap:round;stroke-linejoin:round;stroke-miterlimit:10;" x1="378.212" y1="891.246" x2="454.333" y2="815.125"/>
		
			<line style="fill:none;stroke:#00172D;stroke-width:10;stroke-linecap:round;stroke-linejoin:round;stroke-miterlimit:10;" x1="205.917" y1="642.83" x2="416.272" y2="853.185"/>
	</g>
</g>
</svg>
