<?xml version="1.0" encoding="iso-8859-1"?>
<!-- Generator: Adobe Illustrator 29.6.1, SVG Export Plug-In . SVG Version: 9.03 Build 0)  -->
<svg version="1.1" id="Layer_1" xmlns="http://www.w3.org/2000/svg" xmlns:xlink="http://www.w3.org/1999/xlink" x="0px" y="0px"
	 viewBox="0 0 128 128" style="enable-background:new 0 0 128 128;" xml:space="preserve">
<g>
	<linearGradient id="SVGID_1_" gradientUnits="userSpaceOnUse" x1="103.8703" y1="7.9982" x2="26.8041" y2="110.1946">
		<stop  offset="0.0106" style="stop-color:#3B82F6"/>
		<stop  offset="1" style="stop-color:#8B5CF6"/>
	</linearGradient>
	<path style="fill:url(#SVGID_1_);" d="M111.687,67.315c-3.714-4.887-8.406-11.729-8.797-13.586
		c-0.391-1.857,1.857-5.083,0.489-12.609S95.979,1.57,61.825,0c0,0,12.414,4.628,20.819,18.37H60.767L50.235,7.837h-6.314
		c-0.982-2.555-3.455-4.376-6.351-4.376c-3.754,0-6.808,3.054-6.808,6.808c0,3.754,3.054,6.808,6.808,6.808
		c3.081,0,5.688-2.059,6.524-4.873h4.332l10.533,10.533h26.055c0.472,0.989,0.926,2.01,1.349,3.077
		c0.531,1.341,1.01,2.683,1.438,4.024H54.096l-6.054-6.054H29.969c-0.836-2.814-3.443-4.873-6.524-4.873
		c-3.754,0-6.808,3.054-6.808,6.808c0,3.754,3.054,6.808,6.808,6.808c2.897,0,5.37-1.821,6.351-4.376h16.437l6.054,6.054h36.727
		c0.564,2.359,0.974,4.71,1.237,7.044H25.263c-0.913-2.685-3.453-4.625-6.442-4.625c-3.754,0-6.808,3.054-6.808,6.808
		c0,3.754,3.054,6.808,6.808,6.808c2.99,0,5.53-1.94,6.442-4.625h65.316c0.089,2.534,0.002,5.041-0.245,7.512H52.287l-6.054,6.054
		H29.796c-0.982-2.555-3.455-4.376-6.351-4.376c-3.754,0-6.808,3.054-6.808,6.808c0,3.754,3.054,6.808,6.808,6.808
		c3.081,0,5.688-2.059,6.524-4.873h18.073l6.054-6.054h35.622c-0.437,2.413-1.029,4.784-1.772,7.101H58.958L48.426,75.131h-4.332
		c-0.836-2.814-3.442-4.873-6.524-4.873c-3.754,0-6.808,3.054-6.808,6.808c0,3.754,3.054,6.808,6.808,6.808
		c2.896,0,5.37-1.821,6.351-4.376h6.314l10.533-10.533h25.57c-2.259,5.453-5.359,10.554-9.193,15.143
		C54.704,110.969,52.049,117.827,50.496,128c0,0,4.809-5.811,10.82-9.217c5.773-3.272,14.298-6.011,25.647-6.011
		c6.412,0,10.748,1.068,13.973-1.18c3.225-2.248,2.444-5.376,1.759-8.601c-0.684-3.225-0.195-4.203,1.564-5.376
		c1.759-1.173,2.541-3.323,1.857-4.301c-0.684-0.977-4.789-2.15-4.789-2.15s5.767,0.489,6.256-1.662
		c0.489-2.15-1.271-3.714-1.075-6.451c0.196-2.737,0.88-2.541,4.496-3.225c3.616-0.684,4.985-2.639,4.985-5.18
		C115.988,72.104,115.402,72.202,111.687,67.315z M37.57,12.71c-1.346,0-2.441-1.095-2.441-2.441c0-1.346,1.095-2.441,2.441-2.441
		c1.346,0,2.441,1.095,2.441,2.441C40.011,11.615,38.916,12.71,37.57,12.71z M23.445,28.161c-1.346,0-2.441-1.095-2.441-2.441
		c0-1.346,1.095-2.441,2.441-2.441c1.346,0,2.441,1.095,2.441,2.441C25.885,27.066,24.79,28.161,23.445,28.161z M18.82,45.875
		c-1.346,0-2.441-1.095-2.441-2.441s1.095-2.441,2.441-2.441c1.346,0,2.441,1.095,2.441,2.441S20.166,45.875,18.82,45.875z
		 M23.445,64.056c-1.346,0-2.441-1.095-2.441-2.441s1.095-2.441,2.441-2.441c1.346,0,2.441,1.095,2.441,2.441
		S24.79,64.056,23.445,64.056z M37.57,79.507c-1.346,0-2.441-1.095-2.441-2.441c0-1.346,1.095-2.441,2.441-2.441
		c1.346,0,2.441,1.095,2.441,2.441C40.011,78.412,38.916,79.507,37.57,79.507z"/>
</g>
</svg>
