<?xml version="1.0" encoding="iso-8859-1"?>
<!-- Generator: Adobe Illustrator 29.6.1, SVG Export Plug-In . SVG Version: 9.03 Build 0)  -->
<svg version="1.1" id="Layer_1" xmlns="http://www.w3.org/2000/svg" xmlns:xlink="http://www.w3.org/1999/xlink" x="0px" y="0px"
	 viewBox="0 0 1024 1024" style="enable-background:new 0 0 1024 1024;" xml:space="preserve">
<g>
	<path style="fill:#FFFFFF;" d="M810.115,532.723c-23.219-30.552-52.549-73.324-54.993-84.933
		c-2.444-11.61,11.61-31.774,3.055-78.823c-8.554-47.049-46.263-247.243-259.771-257.058c0,0,77.605,28.934,130.145,114.837H491.792
		l-65.843-65.843H386.48c-6.138-15.972-21.598-27.358-39.705-27.358c-23.468,0-42.561,19.092-42.561,42.56
		c0,23.468,19.093,42.561,42.561,42.561c19.263,0,35.555-12.873,40.784-30.461h27.081l65.843,65.843h162.879
		c2.952,6.184,5.789,12.563,8.43,19.236c3.32,8.385,6.312,16.774,8.99,25.157h-210.7l-37.844-37.844H299.255
		c-5.228-17.588-21.521-30.461-40.784-30.461c-23.468,0-42.561,19.093-42.561,42.561c0,23.468,19.093,42.561,42.561,42.561
		c18.107,0,33.568-11.386,39.705-27.359H400.93l37.844,37.844H668.37c3.526,14.747,6.088,29.442,7.731,44.038H269.836
		c-5.707-16.784-21.585-28.91-40.275-28.91c-23.468,0-42.561,19.093-42.561,42.561c0,23.468,19.093,42.561,42.561,42.561
		c18.689,0,34.568-12.126,40.275-28.91h408.317c0.554,15.839,0.012,31.513-1.534,46.963H438.774l-37.844,37.844H298.177
		c-6.138-15.972-21.598-27.359-39.705-27.359c-23.468,0-42.561,19.093-42.561,42.561c0,23.468,19.093,42.561,42.561,42.561
		c19.263,0,35.556-12.873,40.784-30.461h112.984l37.844-37.844h222.69c-2.733,15.086-6.432,29.908-11.079,44.393H480.483
		l-65.843,65.844h-27.081c-5.228-17.589-21.52-30.462-40.784-30.462c-23.468,0-42.561,19.093-42.561,42.561
		c0,23.468,19.093,42.561,42.561,42.561c18.107,0,33.567-11.386,39.705-27.358h39.469l65.843-65.844h159.85
		c-14.125,34.092-33.503,65.98-57.468,94.665C453.887,805.623,437.289,848.497,427.583,912.091c0,0,30.061-36.324,67.638-57.618
		c36.092-20.452,89.383-37.577,160.328-37.577c40.082,0,67.188,6.677,87.352-7.377c20.164-14.054,15.276-33.607,10.999-53.771
		c-4.277-20.164-1.222-26.274,9.776-33.607c10.999-7.332,15.887-20.775,11.61-26.885c-4.277-6.11-29.94-13.443-29.94-13.443
		s36.051,3.055,39.106-10.388c3.055-13.443-7.943-23.219-6.721-40.328c1.222-17.109,5.499-15.887,28.107-20.164
		S837,594.437,837,578.55C837,562.663,833.334,563.274,810.115,532.723z M346.775,191.364c-8.414,0-15.259-6.845-15.259-15.259
		c0-8.413,6.845-15.258,15.259-15.258c8.413,0,15.258,6.845,15.258,15.258C362.033,184.519,355.188,191.364,346.775,191.364z
		 M258.471,287.956c-8.414,0-15.259-6.845-15.259-15.259c0-8.414,6.845-15.259,15.259-15.259c8.414,0,15.258,6.845,15.258,15.259
		C273.73,281.111,266.885,287.956,258.471,287.956z M229.561,398.691c-8.414,0-15.259-6.845-15.259-15.259
		c0-8.414,6.845-15.259,15.259-15.259c8.414,0,15.259,6.845,15.259,15.259C244.82,391.846,237.975,398.691,229.561,398.691z
		 M258.471,512.352c-8.414,0-15.259-6.845-15.259-15.259s6.845-15.259,15.259-15.259c8.414,0,15.258,6.845,15.258,15.259
		S266.885,512.352,258.471,512.352z M346.775,608.944c-8.414,0-15.259-6.846-15.259-15.259c0-8.414,6.845-15.259,15.259-15.259
		c8.413,0,15.258,6.845,15.258,15.259C362.033,602.098,355.188,608.944,346.775,608.944z"/>
</g>
</svg>
