<?xml version="1.0" encoding="iso-8859-1"?>
<!-- Generator: Adobe Illustrator 29.6.1, SVG Export Plug-In . SVG Version: 9.03 Build 0)  -->
<svg version="1.1" id="Layer_1" xmlns="http://www.w3.org/2000/svg" xmlns:xlink="http://www.w3.org/1999/xlink" x="0px" y="0px"
	 viewBox="0 0 1024 740" style="enable-background:new 0 0 1024 740;" xml:space="preserve">
<g>
	<g>
		<g>
			<path style="fill:#FFFFFF;" d="M183.983,573.728h-26.408l-44.168-66.869v66.869H87V465.316h26.406l44.168,67.178v-67.178h26.408
				V573.728z"/>
			<path style="fill:#FFFFFF;" d="M229.541,486.473v21.929h35.366v20.386h-35.366v23.782h39.998v21.158h-66.405V465.316h66.405
				v21.157H229.541z"/>
			<path style="fill:#FFFFFF;" d="M353.087,573.728l-22.083-33.203l-19.459,33.203h-29.96l34.748-55.133l-35.519-53.279h30.732
				l21.776,32.74l19.15-32.74h29.96l-34.439,54.669l35.829,53.743H353.087z"/>
			<path style="fill:#FFFFFF;" d="M475.09,465.316v21.157h-28.725v87.255h-26.408v-87.255h-28.724v-21.157H475.09z"/>
			<path style="fill:#FFFFFF;" d="M539.026,570.948c-6.281-2.573-11.3-6.382-15.057-11.428c-3.761-5.043-5.742-11.119-5.945-18.222
				h28.105c0.411,4.015,1.801,7.079,4.17,9.188c2.367,2.112,5.456,3.167,9.267,3.167c3.912,0,7-0.9,9.267-2.703
				c2.264-1.8,3.396-4.297,3.396-7.49c0-2.676-0.902-4.889-2.701-6.64c-1.803-1.75-4.016-3.19-6.64-4.324
				c-2.626-1.132-6.358-2.418-11.198-3.861c-7.001-2.163-12.716-4.324-17.142-6.487c-4.427-2.162-8.238-5.352-11.428-9.575
				c-3.193-4.22-4.786-9.729-4.786-16.524c0-10.088,3.652-17.991,10.964-23.705c7.309-5.714,16.833-8.571,28.57-8.571
				c11.943,0,21.569,2.857,28.879,8.571c7.309,5.714,11.221,13.668,11.737,23.86h-28.57c-0.207-3.499-1.494-6.255-3.861-8.262
				c-2.371-2.008-5.406-3.012-9.111-3.012c-3.193,0-5.769,0.849-7.723,2.548c-1.956,1.699-2.933,4.146-2.933,7.335
				c0,3.502,1.645,6.23,4.941,8.185c3.294,1.957,8.441,4.069,15.443,6.332c7.001,2.369,12.688,4.632,17.067,6.795
				c4.373,2.162,8.157,5.303,11.35,9.42c3.191,4.119,4.788,9.42,4.788,15.906c0,6.178-1.57,11.79-4.711,16.833
				c-3.141,5.046-7.696,9.061-13.667,12.046c-5.972,2.988-13.026,4.479-21.158,4.479
				C552.408,574.809,545.305,573.522,539.026,570.948z"/>
			<path style="fill:#FFFFFF;" d="M709.982,465.316v108.412h-26.406v-44.632h-41.081v44.632h-26.406V465.316h26.406v42.469h41.081
				v-42.469H709.982z"/>
			<path style="fill:#FFFFFF;" d="M755.385,465.316v108.412h-26.406V465.316H755.385z"/>
			<path style="fill:#FFFFFF;" d="M845.111,465.316v21.157h-44.168v22.857h33.049v20.54h-33.049v43.859h-26.406V465.316H845.111z"/>
			<path style="fill:#FFFFFF;" d="M937,465.316v21.157h-28.725v87.255h-26.408v-87.255h-28.724v-21.157H937z"/>
		</g>
	</g>
	<g>
		<path style="fill:#FFFFFF;" d="M201.987,616.794c1.941-3.517,4.648-6.255,8.122-8.218c3.471-1.963,7.41-2.945,11.81-2.945
			c5.392,0,10.008,1.424,13.847,4.271c3.839,2.848,6.408,6.731,7.702,11.649h-12.167c-0.906-1.9-2.19-3.343-3.851-4.337
			c-1.661-0.992-3.548-1.487-5.661-1.487c-3.409,0-6.171,1.187-8.284,3.558c-2.115,2.374-3.172,5.544-3.172,9.512
			c0,3.971,1.057,7.141,3.172,9.514c2.113,2.374,4.875,3.558,8.284,3.558c2.113,0,4-0.496,5.661-1.487
			c1.661-0.992,2.945-2.437,3.851-4.337h12.167c-1.294,4.918-3.863,8.792-7.702,11.617c-3.839,2.826-8.455,4.237-13.847,4.237
			c-4.401,0-8.339-0.98-11.81-2.943c-3.475-1.963-6.181-4.691-8.122-8.186c-1.941-3.495-2.913-7.485-2.913-11.974
			C199.074,624.311,200.045,620.311,201.987,616.794z"/>
		<path style="fill:#FFFFFF;" d="M283.301,649.055c-3.558-1.985-6.386-4.757-8.477-8.318c-2.093-3.558-3.14-7.559-3.14-12.003
			c0-4.443,1.047-8.435,3.14-11.972c2.091-3.539,4.918-6.298,8.477-8.284s7.475-2.977,11.747-2.977
			c4.269,0,8.186,0.992,11.745,2.977c3.56,1.985,6.364,4.745,8.413,8.284c2.049,3.536,3.075,7.529,3.075,11.972
			c0,4.445-1.035,8.445-3.106,12.003c-2.071,3.56-4.877,6.332-8.413,8.318c-3.539,1.983-7.443,2.975-11.713,2.975
			C290.776,652.03,286.859,651.038,283.301,649.055z M303.751,638.312c2.176-2.415,3.268-5.607,3.268-9.578
			c0-4.012-1.091-7.216-3.268-9.61c-2.18-2.396-5.082-3.592-8.704-3.592c-3.668,0-6.591,1.187-8.77,3.56
			c-2.178,2.372-3.268,5.588-3.268,9.642c0,4.012,1.089,7.216,3.268,9.61s5.102,3.592,8.77,3.592
			C298.669,641.936,301.571,640.727,303.751,638.312z"/>
		<path style="fill:#FFFFFF;" d="M388.363,651.578h-11.066l-18.509-28.021v28.021h-11.066v-45.429h11.066l18.509,28.151v-28.151
			h11.066V651.578z"/>
		<path style="fill:#FFFFFF;" d="M427.192,650.413c-2.632-1.077-4.735-2.674-6.31-4.789c-1.575-2.113-2.405-4.66-2.491-7.637h11.778
			c0.171,1.683,0.755,2.967,1.746,3.851c0.992,0.884,2.286,1.326,3.883,1.326c1.639,0,2.933-0.376,3.883-1.133
			c0.948-0.753,1.424-1.8,1.424-3.138c0-1.121-0.378-2.049-1.133-2.782c-0.755-0.733-1.683-1.338-2.782-1.812
			c-1.101-0.474-2.664-1.014-4.691-1.619c-2.935-0.906-5.329-1.812-7.185-2.718c-1.854-0.906-3.451-2.242-4.789-4.012
			c-1.336-1.768-2.005-4.076-2.005-6.924c0-4.227,1.531-7.539,4.594-9.935c3.063-2.393,7.055-3.59,11.974-3.59
			c5.004,0,9.036,1.197,12.101,3.59c3.063,2.396,4.701,5.729,4.918,10h-11.972c-0.088-1.468-0.627-2.623-1.619-3.463
			c-0.994-0.842-2.264-1.263-3.817-1.263c-1.338,0-2.417,0.356-3.236,1.067c-0.82,0.713-1.231,1.738-1.231,3.075
			c0,1.468,0.691,2.611,2.071,3.431c1.38,0.818,3.536,1.705,6.472,2.652c2.933,0.994,5.317,1.942,7.151,2.848
			c1.834,0.906,3.419,2.222,4.757,3.947c1.336,1.726,2.005,3.949,2.005,6.667c0,2.589-0.657,4.94-1.973,7.053
			c-1.316,2.115-3.226,3.797-5.727,5.048c-2.503,1.253-5.458,1.876-8.865,1.876C432.8,652.03,429.823,651.492,427.192,650.413z"/>
		<path style="fill:#FFFFFF;" d="M493.655,606.149v27.179c0,2.718,0.667,4.811,2.005,6.279c1.338,1.468,3.302,2.2,5.89,2.2
			c2.589,0,4.572-0.733,5.952-2.2c1.382-1.468,2.071-3.56,2.071-6.279v-27.179h11.068v27.115c0,4.056-0.864,7.485-2.589,10.289
			c-1.726,2.806-4.044,4.918-6.958,6.342c-2.911,1.424-6.159,2.135-9.739,2.135c-3.582,0-6.784-0.699-9.61-2.103
			c-2.826-1.402-5.058-3.515-6.699-6.342c-1.639-2.824-2.459-6.265-2.459-10.321v-27.115H493.655z"/>
		<path style="fill:#FFFFFF;" d="M562.769,643.035h14.497v8.543h-25.562v-45.429h11.065V643.035z"/>
		<path style="fill:#FFFFFF;" d="M638.549,606.149v8.865h-12.037v36.564h-11.065v-36.564h-12.037v-8.865H638.549z"/>
		<path style="fill:#FFFFFF;" d="M678.478,606.149v45.429h-11.065v-45.429H678.478z"/>
		<path style="fill:#FFFFFF;" d="M750.441,651.578h-11.066l-18.509-28.021v28.021h-11.066v-45.429h11.066l18.509,28.151v-28.151
			h11.066V651.578z"/>
		<path style="fill:#FFFFFF;" d="M811.917,620.516c-0.818-1.511-1.995-2.664-3.527-3.463c-1.531-0.799-3.331-1.197-5.402-1.197
			c-3.582,0-6.452,1.175-8.608,3.527s-3.236,5.49-3.236,9.415c0,4.186,1.133,7.453,3.397,9.805c2.266,2.352,5.382,3.527,9.353,3.527
			c2.716,0,5.014-0.689,6.892-2.071c1.876-1.38,3.246-3.365,4.108-5.954h-14.042v-8.154h24.075v10.291
			c-0.82,2.762-2.212,5.329-4.176,7.7c-1.963,2.374-4.455,4.293-7.473,5.761c-3.021,1.466-6.43,2.198-10.225,2.198
			c-4.488,0-8.489-0.98-12.003-2.943c-3.519-1.963-6.257-4.691-8.22-8.186c-1.963-3.495-2.945-7.485-2.945-11.974
			c0-4.486,0.982-8.487,2.945-12.003c1.963-3.517,4.691-6.255,8.186-8.218c3.495-1.963,7.485-2.945,11.974-2.945
			c5.434,0,10.018,1.316,13.752,3.947c3.73,2.632,6.201,6.279,7.41,10.938H811.917z"/>
	</g>
	<path style="fill:#FFFFFF;" d="M603.663,269.462c-10.014-13.177-22.664-31.624-23.718-36.631
		c-1.054-5.007,5.007-13.704,1.318-33.995S561.31,92.203,469.227,87.97c0,0,33.47,12.479,56.13,49.528h-58.982l-28.397-28.397
		h-17.022c-2.647-6.889-9.315-11.799-17.124-11.799c-10.122,0-18.356,8.234-18.356,18.356c0,10.122,8.234,18.356,18.356,18.356
		c8.308,0,15.335-5.552,17.589-13.137h11.68l28.397,28.397h70.248c1.273,2.667,2.497,5.418,3.636,8.296
		c1.432,3.616,2.722,7.234,3.877,10.85h-90.872l-16.322-16.322h-48.728c-2.255-7.586-9.282-13.138-17.59-13.138
		c-10.121,0-18.356,8.235-18.356,18.356c0,10.122,8.235,18.356,18.356,18.356c7.81,0,14.477-4.911,17.124-11.799h44.316
		l16.322,16.322h99.022c1.521,6.36,2.626,12.698,3.334,18.993H370.648c-2.461-7.239-9.309-12.469-17.37-12.469
		c-10.121,0-18.356,8.235-18.356,18.356c0,10.122,8.235,18.356,18.356,18.356c8.061,0,14.909-5.23,17.37-12.469h176.102
		c0.239,6.831,0.005,13.591-0.662,20.254H443.508l-16.322,16.322h-44.316c-2.647-6.889-9.315-11.799-17.124-11.799
		c-10.121,0-18.356,8.234-18.356,18.356c0,10.121,8.235,18.356,18.356,18.356c8.308,0,15.335-5.552,17.59-13.138h48.728
		l16.322-16.322h96.043c-1.179,6.506-2.774,12.899-4.778,19.146h-78.154L433.1,290.536h-11.68
		c-2.255-7.586-9.281-13.138-17.59-13.138c-10.122,0-18.356,8.234-18.356,18.356c0,10.121,8.234,18.356,18.356,18.356
		c7.809,0,14.477-4.911,17.124-11.799h17.023l28.397-28.398h68.941c-6.092,14.703-14.449,28.456-24.785,40.828
		c-60.504,72.419-67.663,90.91-71.848,118.337c0,0,12.965-15.666,29.172-24.85c15.566-8.821,38.55-16.206,69.147-16.206
		c17.287,0,28.977,2.88,37.674-3.182s6.588-14.494,4.744-23.191c-1.845-8.696-0.527-11.332,4.216-14.494
		c4.744-3.162,6.852-8.96,5.007-11.595c-1.845-2.635-12.913-5.798-12.913-5.798s15.548,1.318,16.866-4.48
		c1.318-5.798-3.426-10.014-2.899-17.393c0.527-7.379,2.372-6.852,12.122-8.696c9.751-1.845,13.44-7.115,13.44-13.967
		C615.258,282.375,613.677,282.638,603.663,269.462z M403.83,122.238c-3.629,0-6.581-2.952-6.581-6.581
		c0-3.629,2.952-6.581,6.581-6.581c3.629,0,6.581,2.952,6.581,6.581C410.411,119.286,407.459,122.238,403.83,122.238z
		 M365.746,163.897c-3.629,0-6.581-2.952-6.581-6.581c0-3.629,2.952-6.581,6.581-6.581c3.629,0,6.581,2.952,6.581,6.581
		C372.327,160.945,369.375,163.897,365.746,163.897z M353.278,211.656c-3.629,0-6.581-2.952-6.581-6.581
		c0-3.629,2.952-6.581,6.581-6.581c3.629,0,6.581,2.952,6.581,6.581C359.859,208.704,356.906,211.656,353.278,211.656z
		 M365.746,260.676c-3.629,0-6.581-2.952-6.581-6.581c0-3.629,2.952-6.581,6.581-6.581c3.629,0,6.581,2.952,6.581,6.581
		C372.327,257.724,369.375,260.676,365.746,260.676z M403.83,302.335c-3.629,0-6.581-2.952-6.581-6.581
		c0-3.629,2.952-6.581,6.581-6.581c3.629,0,6.581,2.952,6.581,6.581C410.411,299.383,407.459,302.335,403.83,302.335z"/>
</g>
</svg>
