<?xml version="1.0" encoding="iso-8859-1"?>
<!-- Generator: Adobe Illustrator 29.6.1, SVG Export Plug-In . SVG Version: 9.03 Build 0)  -->
<svg version="1.1" id="Layer_1" xmlns="http://www.w3.org/2000/svg" xmlns:xlink="http://www.w3.org/1999/xlink" x="0px" y="0px"
	 viewBox="0 0 1024 440" style="enable-background:new 0 0 1024 440;" xml:space="preserve">
<g>
	<g>
		<g>
			<path style="fill:#5E668E;" d="M393.173,246.603h-19.072l-31.898-48.293v48.293h-19.071v-78.295h19.071l31.898,48.516v-48.516
				h19.072V246.603z"/>
			<path style="fill:#5E668E;" d="M426.075,183.587v15.837h25.541v14.723h-25.541v17.175h28.887v15.28h-47.957v-78.295h47.957
				v15.279H426.075z"/>
			<path style="fill:#5E668E;" d="M515.3,246.603l-15.948-23.979l-14.053,23.979h-21.637l25.095-39.817l-25.652-38.478h22.194
				l15.726,23.644l13.83-23.644h21.637L511.62,207.79l25.875,38.813H515.3z"/>
			<path style="fill:#5E668E;" d="M603.41,168.308v15.279h-20.745v63.015h-19.072v-63.015h-20.744v-15.279H603.41z"/>
			<path style="fill:#5E668E;" d="M649.584,244.595c-4.536-1.858-8.161-4.609-10.874-8.254c-2.716-3.642-4.147-8.03-4.294-13.16
				h20.298c0.297,2.9,1.301,5.112,3.011,6.636c1.71,1.525,3.94,2.287,6.692,2.287c2.826,0,5.055-0.65,6.692-1.952
				c1.635-1.3,2.453-3.104,2.453-5.409c0-1.933-0.652-3.531-1.951-4.796c-1.302-1.264-2.9-2.304-4.796-3.123
				c-1.897-0.817-4.592-1.746-8.087-2.788c-5.056-1.562-9.184-3.123-12.38-4.685c-3.197-1.561-5.949-3.865-8.253-6.915
				c-2.306-3.047-3.456-7.027-3.456-11.934c0-7.286,2.637-12.993,7.918-17.12c5.278-4.127,12.156-6.19,20.633-6.19
				c8.625,0,15.577,2.063,20.856,6.19c5.278,4.127,8.104,9.871,8.477,17.231h-20.633c-0.15-2.527-1.079-4.517-2.788-5.967
				c-1.712-1.45-3.904-2.175-6.58-2.175c-2.306,0-4.166,0.613-5.578,1.84c-1.413,1.227-2.119,2.994-2.119,5.298
				c0,2.529,1.188,4.5,3.569,5.911c2.379,1.413,6.096,2.938,11.153,4.573c5.056,1.711,9.163,3.346,12.325,4.907
				c3.158,1.561,5.891,3.83,8.197,6.803c2.304,2.975,3.458,6.803,3.458,11.487c0,4.462-1.134,8.515-3.402,12.157
				c-2.268,3.644-5.558,6.544-9.87,8.699c-4.313,2.158-9.407,3.235-15.28,3.235C659.249,247.383,654.119,246.454,649.584,244.595z"
				/>
			<path style="fill:#5E668E;" d="M773.049,168.308v78.295h-19.071V214.37H724.31v32.233h-19.071v-78.295h19.071v30.671h29.668
				v-30.671H773.049z"/>
			<path style="fill:#5E668E;" d="M805.838,168.308v78.295h-19.071v-78.295H805.838z"/>
			<path style="fill:#5E668E;" d="M870.638,168.308v15.279H838.74v16.507h23.868v14.834H838.74v31.675h-19.071v-78.295H870.638z"/>
			<path style="fill:#5E668E;" d="M937,168.308v15.279h-20.745v63.015h-19.072v-63.015h-20.744v-15.279H937z"/>
		</g>
	</g>
	<g>
		<linearGradient id="SVGID_1_" gradientUnits="userSpaceOnUse" x1="856.2671" y1="286.351" x2="419.6933" y2="286.351">
			<stop  offset="0.0106" style="stop-color:#3B82F6"/>
			<stop  offset="1" style="stop-color:#8B5CF6"/>
		</linearGradient>
		<path style="fill:url(#SVGID_1_);" d="M406.176,277.705c1.402-2.54,3.357-4.517,5.866-5.935c2.507-1.418,5.351-2.127,8.529-2.127
			c3.894,0,7.228,1.028,10.001,3.085c2.773,2.056,4.628,4.861,5.563,8.413h-8.787c-0.654-1.372-1.582-2.415-2.781-3.132
			c-1.199-0.716-2.563-1.074-4.089-1.074c-2.462,0-4.457,0.857-5.982,2.57c-1.527,1.714-2.291,4.004-2.291,6.87
			c0,2.868,0.764,5.157,2.291,6.871c1.526,1.714,3.52,2.57,5.982,2.57c1.526,0,2.889-0.358,4.089-1.074
			c1.199-0.716,2.127-1.76,2.781-3.132h8.787c-0.935,3.552-2.79,6.349-5.563,8.39s-6.106,3.06-10.001,3.06
			c-3.178,0-6.023-0.708-8.529-2.126c-2.509-1.418-4.464-3.388-5.866-5.912c-1.402-2.524-2.104-5.406-2.104-8.647
			C404.072,283.134,404.774,280.245,406.176,277.705z"/>
		
			<linearGradient id="SVGID_00000002342227022046632680000018163033764219445632_" gradientUnits="userSpaceOnUse" x1="856.2671" y1="286.351" x2="419.6933" y2="286.351">
			<stop  offset="0.0106" style="stop-color:#3B82F6"/>
			<stop  offset="1" style="stop-color:#8B5CF6"/>
		</linearGradient>
		<path style="fill:url(#SVGID_00000002342227022046632680000018163033764219445632_);" d="M464.901,301.004
			c-2.57-1.434-4.612-3.436-6.122-6.007c-1.511-2.57-2.268-5.459-2.268-8.669c0-3.208,0.756-6.092,2.268-8.646
			c1.51-2.555,3.552-4.549,6.122-5.982c2.57-1.434,5.399-2.15,8.483-2.15c3.083,0,5.912,0.716,8.482,2.15
			c2.571,1.434,4.596,3.427,6.076,5.982c1.48,2.554,2.22,5.437,2.22,8.646c0,3.21-0.748,6.099-2.243,8.669
			c-1.496,2.571-3.522,4.573-6.076,6.007c-2.556,1.432-5.376,2.149-8.459,2.149C470.299,303.152,467.471,302.436,464.901,301.004z
			 M479.67,293.245c1.572-1.744,2.36-4.05,2.36-6.917c0-2.898-0.788-5.212-2.36-6.94c-1.575-1.73-3.67-2.594-6.286-2.594
			c-2.649,0-4.76,0.857-6.333,2.571c-1.573,1.713-2.36,4.035-2.36,6.963c0,2.898,0.787,5.212,2.36,6.94
			c1.573,1.729,3.684,2.594,6.333,2.594C476,295.863,478.095,294.99,479.67,293.245z"/>
		
			<linearGradient id="SVGID_00000155140977912821481940000002680800779542783112_" gradientUnits="userSpaceOnUse" x1="856.2671" y1="286.4214" x2="419.6933" y2="286.4214">
			<stop  offset="0.0106" style="stop-color:#3B82F6"/>
			<stop  offset="1" style="stop-color:#8B5CF6"/>
		</linearGradient>
		<path style="fill:url(#SVGID_00000155140977912821481940000002680800779542783112_);" d="M540.776,302.826h-7.992l-13.367-20.237
			v20.237h-7.991v-32.809h7.991l13.367,20.33v-20.33h7.992V302.826z"/>
		
			<linearGradient id="SVGID_00000137091496188220571230000000797418189932902060_" gradientUnits="userSpaceOnUse" x1="856.2671" y1="286.351" x2="419.6933" y2="286.351">
			<stop  offset="0.0106" style="stop-color:#3B82F6"/>
			<stop  offset="1" style="stop-color:#8B5CF6"/>
		</linearGradient>
		<path style="fill:url(#SVGID_00000137091496188220571230000000797418189932902060_);" d="M568.819,301.984
			c-1.901-0.778-3.42-1.931-4.557-3.459c-1.138-1.526-1.737-3.365-1.799-5.515h8.506c0.124,1.215,0.545,2.143,1.261,2.781
			s1.651,0.958,2.804,0.958c1.184,0,2.118-0.272,2.804-0.818c0.685-0.544,1.028-1.3,1.028-2.266c0-0.81-0.273-1.48-0.818-2.009
			c-0.545-0.529-1.215-0.966-2.009-1.309c-0.795-0.342-1.924-0.732-3.388-1.169c-2.12-0.654-3.848-1.309-5.189-1.963
			c-1.339-0.654-2.492-1.619-3.459-2.898c-0.965-1.277-1.448-2.944-1.448-5c0-3.053,1.106-5.445,3.318-7.175
			c2.212-1.729,5.095-2.593,8.647-2.593c3.614,0,6.526,0.864,8.739,2.593c2.212,1.73,3.395,4.137,3.552,7.222h-8.646
			c-0.063-1.06-0.453-1.894-1.169-2.501c-0.718-0.608-1.635-0.912-2.757-0.912c-0.966,0-1.746,0.257-2.337,0.771
			c-0.592,0.515-0.889,1.255-0.889,2.22c0,1.06,0.499,1.885,1.496,2.478c0.997,0.591,2.554,1.231,4.674,1.916
			c2.118,0.718,3.84,1.402,5.164,2.056c1.325,0.654,2.469,1.605,3.436,2.85c0.965,1.247,1.448,2.852,1.448,4.815
			c0,1.87-0.475,3.568-1.425,5.094c-0.951,1.527-2.33,2.742-4.136,3.646c-1.808,0.905-3.942,1.355-6.402,1.355
			C572.868,303.152,570.719,302.764,568.819,301.984z"/>
		
			<linearGradient id="SVGID_00000035530365441542461060000003433879066983253410_" gradientUnits="userSpaceOnUse" x1="856.2671" y1="286.5847" x2="419.6933" y2="286.5847">
			<stop  offset="0.0106" style="stop-color:#3B82F6"/>
			<stop  offset="1" style="stop-color:#8B5CF6"/>
		</linearGradient>
		<path style="fill:url(#SVGID_00000035530365441542461060000003433879066983253410_);" d="M616.818,270.017v19.629
			c0,1.963,0.482,3.474,1.448,4.534c0.966,1.06,2.384,1.589,4.254,1.589s3.302-0.529,4.298-1.589
			c0.998-1.06,1.496-2.571,1.496-4.534v-19.629h7.993V289.6c0,2.929-0.624,5.406-1.87,7.431c-1.247,2.026-2.921,3.552-5.025,4.58
			c-2.102,1.028-4.448,1.542-7.034,1.542c-2.587,0-4.9-0.505-6.94-1.519c-2.041-1.012-3.653-2.538-4.838-4.58
			c-1.184-2.039-1.776-4.524-1.776-7.454v-19.583H616.818z"/>
		
			<linearGradient id="SVGID_00000085950581666599440840000016036986950448071041_" gradientUnits="userSpaceOnUse" x1="856.2671" y1="286.4214" x2="419.6933" y2="286.4214">
			<stop  offset="0.0106" style="stop-color:#3B82F6"/>
			<stop  offset="1" style="stop-color:#8B5CF6"/>
		</linearGradient>
		<path style="fill:url(#SVGID_00000085950581666599440840000016036986950448071041_);" d="M666.731,296.656h10.469v6.169H658.74
			v-32.809h7.991V296.656z"/>
		
			<linearGradient id="SVGID_00000109026580926037216270000000322322428380723108_" gradientUnits="userSpaceOnUse" x1="856.2671" y1="286.4214" x2="419.6933" y2="286.4214">
			<stop  offset="0.0106" style="stop-color:#3B82F6"/>
			<stop  offset="1" style="stop-color:#8B5CF6"/>
		</linearGradient>
		<path style="fill:url(#SVGID_00000109026580926037216270000000322322428380723108_);" d="M721.46,270.017v6.402h-8.693v26.406
			h-7.992v-26.406h-8.693v-6.402H721.46z"/>
		
			<linearGradient id="SVGID_00000150818861071871657840000005691162454894632353_" gradientUnits="userSpaceOnUse" x1="856.2671" y1="286.4214" x2="419.6933" y2="286.4214">
			<stop  offset="0.0106" style="stop-color:#3B82F6"/>
			<stop  offset="1" style="stop-color:#8B5CF6"/>
		</linearGradient>
		<path style="fill:url(#SVGID_00000150818861071871657840000005691162454894632353_);" d="M750.296,270.017v32.809h-7.991v-32.809
			H750.296z"/>
		
			<linearGradient id="SVGID_00000173881176928483378560000002135223435185737856_" gradientUnits="userSpaceOnUse" x1="856.2671" y1="286.4214" x2="419.6933" y2="286.4214">
			<stop  offset="0.0106" style="stop-color:#3B82F6"/>
			<stop  offset="1" style="stop-color:#8B5CF6"/>
		</linearGradient>
		<path style="fill:url(#SVGID_00000173881176928483378560000002135223435185737856_);" d="M802.267,302.826h-7.992l-13.367-20.237
			v20.237h-7.991v-32.809h7.991l13.367,20.33v-20.33h7.992V302.826z"/>
		
			<linearGradient id="SVGID_00000003826951067283221380000005157785179303885474_" gradientUnits="userSpaceOnUse" x1="856.2671" y1="286.351" x2="419.6933" y2="286.351">
			<stop  offset="0.0106" style="stop-color:#3B82F6"/>
			<stop  offset="1" style="stop-color:#8B5CF6"/>
		</linearGradient>
		<path style="fill:url(#SVGID_00000003826951067283221380000005157785179303885474_);" d="M846.666,280.393
			c-0.591-1.092-1.441-1.924-2.547-2.501c-1.106-0.577-2.406-0.864-3.902-0.864c-2.587,0-4.659,0.848-6.217,2.547
			c-1.557,1.698-2.337,3.965-2.337,6.799c0,3.023,0.818,5.383,2.453,7.081c1.637,1.698,3.887,2.547,6.755,2.547
			c1.962,0,3.621-0.498,4.977-1.496c1.355-0.997,2.344-2.43,2.967-4.3h-10.141v-5.889h17.387v7.432
			c-0.592,1.995-1.598,3.848-3.016,5.561c-1.418,1.714-3.217,3.101-5.397,4.16c-2.182,1.058-4.644,1.588-7.385,1.588
			c-3.241,0-6.131-0.708-8.669-2.126c-2.541-1.418-4.518-3.388-5.936-5.912c-1.418-2.524-2.127-5.406-2.127-8.647
			c0-3.24,0.709-6.129,2.127-8.669c1.418-2.54,3.388-4.517,5.912-5.935c2.524-1.418,5.406-2.127,8.647-2.127
			c3.924,0,7.235,0.951,9.931,2.85c2.694,1.901,4.478,4.534,5.351,7.899H846.666z"/>
	</g>
	
		<linearGradient id="SVGID_00000126297658661649808360000017186896246161719740_" gradientUnits="userSpaceOnUse" x1="265.8627" y1="110.9557" x2="115.8029" y2="309.9482">
		<stop  offset="0.0106" style="stop-color:#3B82F6"/>
		<stop  offset="1" style="stop-color:#8B5CF6"/>
	</linearGradient>
	<path style="fill:url(#SVGID_00000126297658661649808360000017186896246161719740_);" d="M281.084,226.455
		c-7.232-9.516-16.367-22.838-17.129-26.454c-0.761-3.616,3.616-9.897,0.952-24.551c-2.664-14.655-14.41-77.01-80.912-80.067
		c0,0,24.172,9.012,40.537,35.769h-42.597l-20.509-20.509h-12.294c-1.912-4.975-6.727-8.521-12.367-8.521
		c-7.31,0-13.257,5.947-13.257,13.256c0,7.31,5.947,13.257,13.257,13.257c6,0,11.075-4.009,12.703-9.488h8.435l20.509,20.509h50.733
		c0.919,1.926,1.803,3.913,2.626,5.991c1.034,2.612,1.966,5.225,2.8,7.836h-65.627l-11.787-11.788h-35.191
		c-1.628-5.478-6.703-9.488-12.703-9.488c-7.31,0-13.257,5.947-13.257,13.257c0,7.31,5.947,13.257,13.257,13.257
		c5.64,0,10.455-3.547,12.367-8.522h32.005l11.787,11.788h71.513c1.098,4.593,1.896,9.171,2.408,13.717H112.801
		c-1.777-5.228-6.723-9.005-12.545-9.005c-7.31,0-13.257,5.947-13.257,13.257c0,7.31,5.947,13.257,13.257,13.257
		c5.821,0,10.767-3.777,12.545-9.005h127.18c0.172,4.934,0.004,9.816-0.478,14.628h-74.083l-11.787,11.788h-32.005
		c-1.912-4.975-6.727-8.522-12.367-8.522c-7.31,0-13.257,5.947-13.257,13.257c0,7.31,5.947,13.257,13.257,13.257
		c6,0,11.075-4.01,12.703-9.488h35.191l11.787-11.788h69.362c-0.851,4.699-2.003,9.316-3.451,13.827h-56.442l-20.509,20.509h-8.435
		c-1.628-5.478-6.703-9.488-12.703-9.488c-7.31,0-13.257,5.947-13.257,13.257c0,7.31,5.947,13.257,13.257,13.257
		c5.64,0,10.455-3.547,12.367-8.521h12.294l20.509-20.509h49.789c-4.4,10.619-10.435,20.551-17.9,29.486
		c-43.696,52.301-48.866,65.655-51.889,85.463c0,0,9.363-11.314,21.068-17.946c11.242-6.37,27.84-11.704,49.938-11.704
		c12.485,0,20.927,2.08,27.208-2.298c6.281-4.377,4.758-10.468,3.426-16.748c-1.332-6.281-0.381-8.184,3.045-10.468
		c3.426-2.284,4.948-6.471,3.616-8.374c-1.332-1.903-9.326-4.187-9.326-4.187s11.229,0.952,12.18-3.235
		c0.952-4.187-2.474-7.232-2.094-12.561c0.381-5.329,1.713-4.948,8.755-6.281c7.042-1.332,9.706-5.139,9.706-10.087
		C289.458,235.78,288.316,235.971,281.084,226.455z M136.766,120.13c-2.621,0-4.753-2.132-4.753-4.753
		c0-2.621,2.132-4.753,4.753-4.753c2.62,0,4.753,2.132,4.753,4.753C141.518,117.998,139.386,120.13,136.766,120.13z
		 M109.261,150.216c-2.621,0-4.753-2.132-4.753-4.753c0-2.621,2.132-4.753,4.753-4.753c2.621,0,4.753,2.132,4.753,4.753
		C114.014,148.084,111.882,150.216,109.261,150.216z M100.257,184.707c-2.621,0-4.753-2.132-4.753-4.753
		c0-2.621,2.132-4.753,4.753-4.753c2.621,0,4.753,2.132,4.753,4.753C105.009,182.575,102.877,184.707,100.257,184.707z
		 M109.261,220.11c-2.621,0-4.753-2.132-4.753-4.753c0-2.621,2.132-4.753,4.753-4.753c2.621,0,4.753,2.132,4.753,4.753
		C114.014,217.978,111.882,220.11,109.261,220.11z M136.766,250.195c-2.621,0-4.753-2.132-4.753-4.753
		c0-2.621,2.132-4.753,4.753-4.753c2.62,0,4.753,2.132,4.753,4.753C141.518,248.063,139.386,250.195,136.766,250.195z"/>
</g>
</svg>
