<?xml version="1.0" encoding="iso-8859-1"?>
<!-- Generator: Adobe Illustrator 29.6.1, SVG Export Plug-In . SVG Version: 9.03 Build 0)  -->
<svg version="1.1" id="Layer_1" xmlns="http://www.w3.org/2000/svg" xmlns:xlink="http://www.w3.org/1999/xlink" x="0px" y="0px"
	 viewBox="0 0 32 32" style="enable-background:new 0 0 32 32;" xml:space="preserve">
<g>
	<linearGradient id="SVGID_1_" gradientUnits="userSpaceOnUse" x1="25.9676" y1="1.9995" x2="6.701" y2="27.5487">
		<stop  offset="0.0106" style="stop-color:#3B82F6"/>
		<stop  offset="1" style="stop-color:#8B5CF6"/>
	</linearGradient>
	<path style="fill:url(#SVGID_1_);" d="M27.922,16.829c-0.929-1.222-2.101-2.932-2.199-3.397c-0.098-0.464,0.464-1.271,0.122-3.152
		S23.995,0.393,15.456,0c0,0,3.104,1.157,5.205,4.592h-5.469l-2.633-2.633H10.98c-0.245-0.639-0.864-1.094-1.588-1.094
		c-0.939,0-1.702,0.764-1.702,1.702c0,0.939,0.764,1.702,1.702,1.702c0.77,0,1.422-0.515,1.631-1.218h1.083l2.633,2.633h6.514
		c0.118,0.247,0.231,0.502,0.337,0.769c0.133,0.335,0.252,0.671,0.36,1.006h-8.426L12.01,5.946H7.492
		C7.283,5.243,6.632,4.728,5.861,4.728c-0.939,0-1.702,0.764-1.702,1.702c0,0.939,0.764,1.702,1.702,1.702
		c0.724,0,1.342-0.455,1.588-1.094h4.109l1.513,1.513h9.182c0.141,0.59,0.243,1.177,0.309,1.761H6.316
		C6.087,9.641,5.452,9.156,4.705,9.156c-0.939,0-1.702,0.764-1.702,1.702c0,0.939,0.764,1.702,1.702,1.702
		c0.747,0,1.382-0.485,1.611-1.156h16.329c0.022,0.633,0,1.26-0.061,1.878h-9.512l-1.513,1.513H7.449
		c-0.245-0.639-0.864-1.094-1.588-1.094c-0.939,0-1.702,0.764-1.702,1.702c0,0.939,0.764,1.702,1.702,1.702
		c0.77,0,1.422-0.515,1.631-1.218h4.518l1.513-1.513h8.906c-0.109,0.603-0.257,1.196-0.443,1.775H14.74l-2.633,2.633h-1.083
		c-0.209-0.703-0.861-1.218-1.631-1.218c-0.939,0-1.702,0.764-1.702,1.702c0,0.939,0.764,1.702,1.702,1.702
		c0.724,0,1.342-0.455,1.588-1.094h1.578l2.633-2.633h6.393c-0.565,1.363-1.34,2.639-2.298,3.786
		c-5.61,6.715-6.274,8.43-6.662,10.973c0,0,1.202-1.453,2.705-2.304c1.443-0.818,3.574-1.503,6.412-1.503
		c1.603,0,2.687,0.267,3.493-0.295c0.806-0.562,0.611-1.344,0.44-2.15c-0.171-0.806-0.049-1.051,0.391-1.344
		c0.44-0.293,0.635-0.831,0.464-1.075c-0.171-0.244-1.197-0.538-1.197-0.538s1.442,0.122,1.564-0.415
		c0.122-0.538-0.318-0.929-0.269-1.613c0.049-0.684,0.22-0.635,1.124-0.806c0.904-0.171,1.246-0.66,1.246-1.295
		C28.997,18.026,28.85,18.051,27.922,16.829z M9.392,3.177c-0.336,0-0.61-0.274-0.61-0.61c0-0.336,0.274-0.61,0.61-0.61
		c0.336,0,0.61,0.274,0.61,0.61C10.003,2.904,9.729,3.177,9.392,3.177z M5.861,7.04c-0.336,0-0.61-0.274-0.61-0.61
		c0-0.336,0.274-0.61,0.61-0.61c0.336,0,0.61,0.274,0.61,0.61C6.471,6.767,6.198,7.04,5.861,7.04z M4.705,11.469
		c-0.336,0-0.61-0.274-0.61-0.61s0.274-0.61,0.61-0.61c0.336,0,0.61,0.274,0.61,0.61S5.042,11.469,4.705,11.469z M5.861,16.014
		c-0.336,0-0.61-0.274-0.61-0.61s0.274-0.61,0.61-0.61c0.336,0,0.61,0.274,0.61,0.61S6.198,16.014,5.861,16.014z M9.392,19.877
		c-0.336,0-0.61-0.274-0.61-0.61c0-0.336,0.274-0.61,0.61-0.61c0.336,0,0.61,0.274,0.61,0.61
		C10.003,19.603,9.729,19.877,9.392,19.877z"/>
</g>
</svg>
